<?xml version="1.0" encoding="iso-8859-1"?>
<!-- Generator: Adobe Illustrator 19.0.0, SVG Export Plug-In . SVG Version: 6.00 Build 0)  -->
<svg version="1.1" id="Layer_1" xmlns="http://www.w3.org/2000/svg" xmlns:xlink="http://www.w3.org/1999/xlink" x="0px" y="0px"
	 viewBox="0 0 512 512" style="enable-background:new 0 0 512 512;" xml:space="preserve">
<rect x="4" y="65.048" style="fill:#FFFFFF;" width="504" height="381.896"/>
<g>
	<path style="fill:#AAC1CE;" d="M504,69.048v373.904H8V69.048H504 M512,61.048H0v389.904h512V61.048z"/>
	<rect x="2.992" y="126.848" style="fill:#AAC1CE;" width="505.84" height="8"/>
</g>
<circle style="fill:#E04F5F;" cx="48.08" cy="98.504" r="12.584"/>
<circle style="fill:#25B6D2;" cx="89.312" cy="98.504" r="12.584"/>
<circle style="fill:#32BEA6;" cx="130.568" cy="98.504" r="12.584"/>
<g>
	<path style="fill:#415E72;" d="M171.2,284.96c-0.384-8.352-0.864-18.4-0.8-27.16h-0.288c-2.112,7.864-4.8,16.6-7.68,24.76l-9.4,28
		h-9.12l-8.632-27.632c-2.496-8.248-4.8-17.08-6.52-25.144h-0.192c-0.288,8.448-0.672,18.712-1.152,27.536l-1.44,26h-11.04
		l4.32-64.672h15.536l8.448,26.008c2.304,7.576,4.32,15.248,5.952,22.448h0.28c1.736-7,3.936-14.96,6.4-22.544l8.92-25.904h15.352
		L184,311.344h-11.544L171.2,284.96z"/>
	<path style="fill:#415E72;" d="M203.2,264.616l8.448,25.04c0.96,2.88,1.92,6.4,2.592,9.12h0.28c0.8-2.688,1.6-6.144,2.504-9.208
		l7.288-24.944h12.664l-11.704,31.848c-6.4,17.472-10.752,25.232-16.312,30.032c-3.432,3.2-7.744,5.304-12.376,6.048l-2.688-9.976
		c2.488-0.64,4.832-1.752,6.904-3.264c2.696-1.912,4.888-4.44,6.4-7.384c0.432-0.632,0.704-1.36,0.8-2.12
		c-0.032-0.808-0.264-1.6-0.672-2.296l-17.08-42.888L203.2,264.616z"/>
	<path style="fill:#415E72;" d="M244,298.488c4.784,2.664,10.16,4.088,15.64,4.128c7.576,0,11.808-3.544,11.808-8.8
		c0-4.896-3.264-7.776-11.512-10.752c-10.648-3.832-17.464-9.496-17.464-18.808c0-10.552,8.8-18.616,22.832-18.616
		c5.36-0.144,10.688,0.968,15.536,3.264l-2.872,9.496c-3.968-2.056-8.384-3.112-12.856-3.072c-7.488,0-10.752,4-10.752,7.776
		c0,4.984,3.744,7.288,12.384,10.648c11.2,4.216,16.696,9.88,16.696,19.2c0,10.36-7.864,19.384-24.56,19.384
		c-6.056,0.064-12.04-1.312-17.464-4L244,298.488z"/>
	<path style="fill:#415E72;" d="M348.512,321.704c-8.544-2.352-16.968-5.136-25.232-8.344c-1.36-0.504-2.776-0.824-4.216-0.96
		c-14.968-0.8-28.304-11.8-28.304-32.8c0-20,12.376-33.968,30.896-33.968c18.712,0,29.832,14.4,29.832,32.624
		c1.224,12.456-5.44,24.36-16.696,29.832v0.392c5.6,1.528,11.808,2.872,17.08,3.928L348.512,321.704z M339.016,278.824
		c0-12.384-6.048-23.704-17.752-23.704s-18.144,11.2-18.04,24.176c-0.104,12.952,6.52,23.6,17.84,23.6
		S339.016,292.344,339.016,278.824z"/>
	<path style="fill:#415E72;" d="M361.696,246.672h11.808v54.792h26.568v9.88h-38.4L361.696,246.672z"/>
</g>
<g>
</g>
<g>
</g>
<g>
</g>
<g>
</g>
<g>
</g>
<g>
</g>
<g>
</g>
<g>
</g>
<g>
</g>
<g>
</g>
<g>
</g>
<g>
</g>
<g>
</g>
<g>
</g>
<g>
</g>
</svg>
